<svg version="1.1" id="Layer_1" xmlns="http://www.w3.org/2000/svg" xmlns:xlink="http://www.w3.org/1999/xlink" x="0px" y="0px"
	 width="100%" viewBox="0 0 447 447" enable-background="new 0 0 447 447" xml:space="preserve">
<path fill="#FFFFFF" opacity="1.000000" stroke="none" 
	d="
M448.000000,173.000000 
	C448.000000,264.974426 448.000000,356.448883 448.000000,447.923309 
	C447.858948,447.948883 447.717896,447.996857 447.576843,447.996857 
	C298.785095,448.000031 149.993347,448.000000 1.100803,448.000000 
	C1.100803,299.108887 1.100803,150.217697 1.100803,1.163255 
	C149.999847,1.163255 298.999908,1.163255 448.000000,1.163255 
	C448.000000,58.198963 448.000000,115.349480 448.000000,173.000000 
M90.667717,106.851006 
	C90.043205,107.697678 89.418694,108.544350 88.028236,109.929192 
	C87.575958,111.437805 84.017639,112.232735 86.773514,114.631111 
	C86.773514,114.631111 86.484390,114.973747 86.039268,114.057915 
	C84.930801,114.842690 83.455757,115.390480 82.771263,116.449326 
	C76.728165,125.797348 69.823067,134.755859 65.045662,144.726852 
	C36.234791,204.858414 38.924442,263.868713 73.505058,320.914886 
	C88.884537,346.285736 110.259422,365.923492 136.028259,380.667053 
	C137.196213,381.335266 138.979568,380.927856 140.498764,381.008179 
	C140.498764,381.008179 140.496750,381.034485 139.929443,381.748352 
	C145.792236,384.855713 151.655029,387.963074 157.499390,391.010345 
	C157.499390,391.010345 157.445328,391.042419 158.100952,391.425385 
	C174.455048,397.935150 191.355423,402.047974 208.940201,403.429657 
	C256.615967,407.175690 299.626160,394.786072 336.571655,364.454742 
	C381.515076,327.557220 404.349335,279.626434 403.010803,221.144958 
	C401.671600,162.633850 376.385773,115.986755 329.949127,81.085815 
	C295.790588,55.412872 256.721069,44.406647 214.045700,46.945007 
	C166.266342,49.786953 126.155128,69.110085 93.153885,104.265610 
	C92.758949,104.662331 92.364014,105.059044 91.464020,105.969337 
	C91.358162,106.185188 91.252296,106.401047 90.667717,106.851006 
z"/>
<path fill="#FCFCFC" opacity="1.000000" stroke="none" 
	d="
M91.969086,105.455765 
	C92.364014,105.059044 92.758949,104.662331 93.189697,104.636475 
	C94.509743,104.675606 96.133339,104.727470 97.018349,103.944496 
	C100.506981,100.858124 103.682892,97.421486 107.118187,94.271141 
	C175.042740,31.980988 284.354889,34.917728 348.862061,100.743469 
	C406.203918,159.257431 416.966736,243.591080 376.163544,314.669037 
	C340.825958,376.226135 266.955994,411.278046 197.148651,399.125549 
	C185.084564,397.025360 173.373520,392.915833 161.470337,389.847137 
	C160.109283,389.496216 157.593384,386.750061 157.445328,391.042419 
	C157.445328,391.042419 157.499390,391.010345 157.873962,390.696503 
	C158.157257,389.746552 158.258286,388.677063 157.946228,388.538635 
	C152.159103,385.971069 146.322739,383.514465 140.496735,381.034485 
	C140.496750,381.034485 140.498764,381.008179 140.586700,380.626556 
	C126.576332,372.248322 113.577591,362.803070 101.858383,351.549225 
	C40.206978,292.346130 30.717192,194.931061 79.857887,125.163445 
	C82.189400,121.853279 84.281044,118.374176 86.484390,114.973747 
	C86.484390,114.973747 86.773514,114.631111 87.239410,114.595047 
	C88.570770,113.417221 89.436226,112.275459 90.617584,110.940933 
	C91.886620,109.331451 92.839737,107.914734 93.674866,106.081413 
	C93.027611,105.595123 92.498344,105.525444 91.969086,105.455765 
M334.992035,230.554153 
	C335.133911,230.816223 335.275757,231.078308 335.417633,231.340378 
	C335.300629,230.878586 335.183594,230.416794 335.014008,229.467789 
	C334.873596,229.196640 334.733185,228.925507 334.592773,228.654358 
	C334.700256,229.130768 334.807770,229.607193 334.992035,230.554153 
M333.967377,222.485184 
	C333.658539,222.223206 333.349670,221.961227 333.040833,221.699249 
	C332.906921,221.979553 332.773010,222.259857 332.639099,222.540192 
	C333.091095,222.694885 333.543121,222.849579 334.002350,223.692490 
	C334.330963,224.304703 334.659576,224.916931 334.988190,225.529144 
	C335.272888,225.230820 335.557617,224.932495 335.842316,224.634171 
	C335.229706,224.088013 334.617096,223.541870 333.967377,222.485184 
M274.550720,219.075409 
	C274.750610,218.794418 274.950531,218.513443 275.150421,218.232468 
	C274.396179,218.496307 273.641937,218.760147 272.402252,219.487991 
	C272.402252,220.498871 272.402252,221.509750 272.402252,222.520645 
	C272.804504,222.509659 273.206787,222.498688 273.609039,222.487701 
	C273.739899,221.414246 273.870728,220.340775 274.550720,219.075409 
M198.180054,220.143967 
	C195.382721,226.152771 195.833069,230.329956 199.418106,234.263763 
	C199.418106,229.878311 199.418106,225.144760 199.821930,220.017319 
	C199.778839,219.751678 199.735748,219.486038 199.692642,219.220383 
	C199.413712,219.431107 199.134796,219.641846 198.180054,220.143967 
M144.172028,229.736450 
	C145.831146,231.033630 143.173340,235.606674 148.016968,234.760895 
	C146.341354,229.254669 144.725327,223.944244 143.109314,218.633835 
	C142.604324,218.790298 142.099350,218.946762 141.594360,219.103226 
	C142.141144,221.611282 142.687912,224.119354 142.863892,227.181931 
	C142.178955,227.617554 141.494019,228.053177 139.953598,229.032867 
	C141.914383,229.032867 142.862732,229.032867 144.172028,229.736450 
M114.660995,223.098282 
	C113.562981,221.553635 112.464958,220.009003 111.366943,218.464355 
	C111.058075,218.711609 110.749214,218.958847 110.440353,219.206100 
	C111.883820,222.596375 113.327286,225.986664 114.278069,229.211563 
	C114.170784,229.279205 114.063492,229.346848 113.956200,229.414474 
	C114.233147,229.426361 114.510094,229.438263 115.360970,229.857712 
	C117.369453,230.940887 115.517715,235.885727 120.080727,234.797516 
	C118.372192,230.930191 116.788986,227.346573 115.739975,223.832260 
	C115.842407,223.748550 115.944839,223.664825 116.047272,223.581116 
	C115.752426,223.576141 115.457588,223.571182 114.660995,223.098282 
M230.001480,227.710800 
	C231.059982,230.881958 231.091904,234.973007 235.407028,234.897812 
	C234.765869,231.332352 234.159500,227.960281 233.473770,224.146896 
	C233.190552,224.132248 232.071304,224.074310 230.360123,223.805618 
	C230.305710,223.204071 230.251312,222.602539 230.952698,222.000595 
	C232.207901,221.822891 233.463104,221.645187 234.718307,221.467484 
	C234.657669,220.894547 234.597046,220.321594 234.536407,219.748642 
	C232.999313,219.841507 231.462234,219.934357 229.205856,219.680252 
	C228.205948,220.139282 226.371780,220.544876 226.338409,221.065826 
	C226.076797,225.149673 226.076141,229.258621 226.222580,233.351700 
	C226.246216,234.012711 227.397705,234.633362 227.328293,234.562943 
	C228.280609,231.827744 229.130707,229.386108 230.001480,227.710800 
M176.028717,224.676773 
	C177.548676,227.906570 174.950226,232.158218 177.271942,235.189102 
	C177.719223,235.080841 178.166519,234.972580 178.613800,234.864319 
	C178.613800,229.392700 178.613800,223.921082 178.613800,218.449463 
	C178.195068,218.337448 177.776352,218.225449 177.357620,218.113434 
	C176.584518,220.229294 175.811401,222.345154 174.641769,225.000961 
	C174.472610,225.632156 174.303436,226.263367 174.134277,226.894577 
	C174.367249,226.937637 174.600204,226.980698 174.833160,227.023758 
	C174.906067,226.177139 174.978958,225.330521 176.028717,224.676773 
M229.912079,200.214249 
	C232.828644,200.008926 235.745224,199.803589 239.398499,199.957077 
	C240.206604,200.013260 241.014725,200.069427 242.759323,200.352646 
	C291.476257,200.352646 340.193176,200.352646 389.015106,200.352646 
	C377.422546,120.551979 305.331940,50.332458 208.066010,59.395920 
	C118.174637,67.772202 65.966934,141.704010 60.271587,200.308090 
	C107.089249,200.308090 153.881729,200.308090 201.522156,200.282700 
	C210.697784,200.176178 219.873398,200.069656 229.912079,200.214249 
M206.465576,250.253143 
	C205.266052,250.210129 204.066544,250.167099 201.947342,250.169159 
	C154.667526,250.169159 107.387726,250.169159 60.065063,250.169159 
	C67.938004,319.558746 132.208649,392.885803 226.167297,391.834503 
	C320.189209,390.782532 381.390198,316.430969 388.593018,250.186020 
	C343.776978,250.186020 298.994934,250.186020 253.256836,250.051910 
	C243.741486,250.121765 234.226151,250.191635 223.814468,250.195511 
	C218.330246,250.265762 212.846039,250.336014 206.465576,250.253143 
M253.163101,228.460907 
	C253.163101,230.642593 253.163101,232.824280 253.163101,235.333450 
	C255.901505,233.733002 256.503021,223.883682 254.389404,217.130676 
	C252.382416,221.103333 253.542664,224.439789 253.163101,228.460907 
M170.100235,224.315964 
	C168.984207,222.515305 170.130280,218.889786 165.646500,218.906097 
	C167.734604,224.658005 169.601776,229.801346 171.468964,234.944687 
	C171.975464,234.810638 172.481964,234.676590 172.988480,234.542542 
	C172.085251,231.397034 171.182007,228.251511 170.100235,224.315964 
M300.001801,222.038452 
	C300.001801,226.199722 300.001801,230.360992 300.001801,234.522278 
	C300.462067,234.528427 300.922363,234.534592 301.382629,234.540741 
	C301.382629,229.586212 301.382629,224.631683 301.382629,219.677155 
	C301.115631,219.634354 300.848633,219.591553 300.581635,219.548752 
	C300.393677,220.101349 300.205688,220.653946 300.001801,222.038452 
M277.057465,232.388290 
	C277.464661,233.275696 277.871857,234.163101 278.279022,235.050507 
	C278.470337,234.848175 278.661621,234.645828 278.852905,234.443497 
	C278.852905,229.195175 278.852905,223.946838 278.852905,218.430069 
	C277.933319,218.857925 277.443054,218.972198 277.438049,219.104858 
	C277.282837,223.201584 277.175140,227.300095 277.057465,232.388290 
M206.401459,229.598862 
	C204.800262,231.544983 203.199081,233.491104 201.470856,235.591629 
	C208.012421,234.734619 210.911255,229.328964 207.358307,224.353195 
	C207.147736,226.077896 206.972824,227.510681 206.401459,229.598862 
M205.423859,222.367493 
	C206.146942,222.367996 206.870026,222.368500 207.593109,222.368988 
	C207.275253,221.488968 206.957397,220.608948 206.415054,219.107407 
	C205.796219,220.565521 205.541199,221.166382 205.423859,222.367493 
M283.374268,218.291138 
	C282.786469,218.217270 282.198700,218.143402 281.047119,217.998703 
	C282.097290,219.407898 282.798340,220.348602 284.070496,222.055634 
	C283.932190,220.320953 283.870911,219.552139 283.374268,218.291138 
M138.283081,233.268021 
	C137.774597,233.564651 137.266098,233.861282 136.757614,234.157913 
	C137.221146,234.429474 137.684662,234.701050 138.148193,234.972610 
	C138.368362,234.488708 138.588516,234.004807 138.283081,233.268021 
M326.171814,225.946838 
	C326.053375,226.702957 325.934937,227.459091 325.816498,228.215210 
	C326.103546,228.241379 326.390594,228.267548 326.677643,228.293701 
	C326.677643,227.466949 326.677643,226.640182 326.171814,225.946838 
M167.704666,234.123138 
	C166.772797,234.123138 165.840912,234.123138 164.909042,234.123138 
	C164.922897,234.383438 164.936752,234.643753 164.950607,234.904053 
	C165.997894,234.785538 167.045181,234.667023 167.704666,234.123138 
M338.699768,227.572815 
	C338.988098,227.297272 339.276459,227.021729 339.564789,226.746185 
	C339.450653,226.627106 339.243591,226.398178 339.235748,226.404785 
	C338.931915,226.661743 338.646271,226.940231 338.699768,227.572815 
M140.417618,225.577988 
	C140.056274,225.601059 139.694946,225.624130 139.333603,225.647202 
	C139.406433,225.906784 139.479248,226.166382 139.552063,226.425964 
	C139.799561,226.285568 140.047043,226.145172 140.417618,225.577988 
M326.954620,222.312592 
	C327.097595,222.075729 327.240540,221.838867 327.383484,221.601990 
	C327.139465,221.514572 326.895477,221.427155 326.651459,221.339737 
	C326.610504,221.691193 326.569550,222.042633 326.954620,222.312592 
M120.411682,218.482880 
	C120.411682,218.482880 120.522987,218.416382 120.411682,218.482880 
z"/>
<path fill="#222222" opacity="1.000000" stroke="none" 
	d="
M157.773132,391.233887 
	C157.593384,386.750061 160.109283,389.496216 161.470337,389.847137 
	C173.373520,392.915833 185.084564,397.025360 197.148651,399.125549 
	C266.955994,411.278046 340.825958,376.226135 376.163544,314.669037 
	C416.966736,243.591080 406.203918,159.257431 348.862061,100.743469 
	C284.354889,34.917728 175.042740,31.980988 107.118187,94.271141 
	C103.682892,97.421486 100.506981,100.858124 97.018349,103.944496 
	C96.133339,104.727470 94.509743,104.675606 93.341507,104.491455 
	C126.155128,69.110085 166.266342,49.786953 214.045700,46.945007 
	C256.721069,44.406647 295.790588,55.412872 329.949127,81.085815 
	C376.385773,115.986755 401.671600,162.633850 403.010803,221.144958 
	C404.349335,279.626434 381.515076,327.557220 336.571655,364.454742 
	C299.626160,394.786072 256.615967,407.175690 208.940201,403.429657 
	C191.355423,402.047974 174.455048,397.935150 157.773132,391.233887 
z"/>
<path fill="#222222" opacity="1.000000" stroke="none" 
	d="
M86.261826,114.515831 
	C84.281044,118.374176 82.189400,121.853279 79.857887,125.163445 
	C30.717192,194.931061 40.206978,292.346130 101.858383,351.549225 
	C113.577591,362.803070 126.576332,372.248322 140.575470,380.633179 
	C138.979568,380.927856 137.196213,381.335266 136.028259,380.667053 
	C110.259422,365.923492 88.884537,346.285736 73.505058,320.914886 
	C38.924442,263.868713 36.234791,204.858414 65.045662,144.726852 
	C69.823067,134.755859 76.728165,125.797348 82.771263,116.449326 
	C83.455757,115.390480 84.930801,114.842690 86.261826,114.515831 
z"/>
<path fill="#222222" opacity="1.000000" stroke="none" 
	d="
M140.213089,381.391418 
	C146.322739,383.514465 152.159103,385.971069 157.946228,388.538635 
	C158.258286,388.677063 158.157257,389.746552 157.883179,390.726562 
	C151.655029,387.963074 145.792236,384.855713 140.213089,381.391418 
z"/>
<path fill="#252525" opacity="1.000000" stroke="none" 
	d="
M93.792862,106.498024 
	C92.839737,107.914734 91.886620,109.331451 90.285118,110.728394 
	C89.355881,110.269424 89.075035,109.830223 88.794182,109.391022 
	C89.418694,108.544350 90.043205,107.697678 91.574036,106.816124 
	C92.917854,106.686836 93.355362,106.592430 93.792862,106.498024 
z"/>
<path fill="#222222" opacity="1.000000" stroke="none" 
	d="
M88.411209,109.660110 
	C89.075035,109.830223 89.355881,110.269424 89.969208,110.921158 
	C89.436226,112.275459 88.570770,113.417221 87.338882,114.541595 
	C84.017639,112.232735 87.575958,111.437805 88.411209,109.660110 
z"/>
<path fill="#222222" opacity="1.000000" stroke="none" 
	d="
M93.674866,106.081413 
	C93.355362,106.592430 92.917854,106.686836 91.813400,106.699081 
	C91.252296,106.401047 91.358162,106.185188 91.716553,105.712555 
	C92.498344,105.525444 93.027611,105.595123 93.674866,106.081413 
z"/>
<path fill="#010101" opacity="1.000000" stroke="none" 
	d="
M254.212921,250.186020 
	C298.994934,250.186020 343.776978,250.186020 388.593018,250.186020 
	C381.390198,316.430969 320.189209,390.782532 226.167297,391.834503 
	C132.208649,392.885803 67.938004,319.558746 60.065063,250.169159 
	C107.387726,250.169159 154.667526,250.169159 202.600250,250.487488 
	C202.910049,251.892212 202.699875,253.043747 202.204239,254.055420 
	C192.116257,274.646332 181.790161,295.123901 171.975235,315.843750 
	C167.606705,325.065979 161.097275,329.771637 150.853806,329.121338 
	C149.694092,329.047729 148.517776,329.072571 147.360184,329.175568 
	C146.240417,329.275177 145.134872,329.534729 144.023087,329.724030 
	C144.647034,330.342926 145.270981,330.961823 145.894943,331.580719 
	C164.112335,331.580719 182.329727,331.580719 200.547119,331.580719 
	C200.618790,331.083771 200.690460,330.586823 200.762131,330.089874 
	C199.420822,329.770294 198.087082,329.216339 196.736862,329.172760 
	C191.581039,329.006256 186.399475,329.268646 181.266068,328.871948 
	C175.175186,328.401245 173.262939,325.683197 174.906372,319.867401 
	C176.073868,315.735901 177.616699,311.654846 179.476028,307.783783 
	C188.682877,288.615479 198.050720,269.524475 207.361816,250.406265 
	C212.846039,250.336014 218.330246,250.265762 224.361008,250.568558 
	C234.295715,270.558350 243.730438,290.153076 253.022263,309.815338 
	C254.428543,312.791168 255.379471,316.029266 256.173126,319.237091 
	C257.589539,324.961914 255.305237,328.195282 249.385849,328.816498 
	C245.921219,329.180084 242.398071,328.956116 238.918015,329.218750 
	C237.670959,329.312866 236.473129,330.059265 235.252823,330.507996 
	C235.372330,330.881592 235.491821,331.255188 235.611328,331.628784 
	C257.989441,331.628784 280.367523,331.628784 302.786224,331.628784 
	C302.726929,330.767670 302.820648,330.354004 302.655762,330.135193 
	C302.384277,329.774902 301.934326,329.276855 301.578735,329.291809 
	C291.543579,329.713715 288.061035,322.372253 284.544403,315.024384 
	C274.867188,294.804352 265.156921,274.600128 255.503815,254.368637 
	C254.882172,253.065735 254.634537,251.584366 254.212921,250.186020 
z"/>
<path fill="#010101" opacity="1.000000" stroke="none" 
	d="
M200.674225,200.308090 
	C153.881729,200.308090 107.089249,200.308090 60.271587,200.308090 
	C65.966934,141.704010 118.174637,67.772202 208.066010,59.395920 
	C305.331940,50.332458 377.422546,120.551979 389.015106,200.352646 
	C340.193176,200.352646 291.476257,200.352646 242.378998,199.876236 
	C252.861679,177.170471 263.872772,155.011642 274.510773,132.675140 
	C278.459229,124.384605 284.097382,119.798843 293.578461,120.620461 
	C295.269379,120.766991 297.029022,120.120117 298.756897,119.839592 
	C297.960022,118.163361 297.181915,117.414642 296.400391,117.411057 
	C280.759369,117.339195 265.117767,117.326881 249.477081,117.427094 
	C248.687958,117.432144 247.906006,118.558899 247.120728,119.163376 
	C248.010880,119.663467 248.875900,120.532089 249.795898,120.594879 
	C252.611740,120.787048 255.451996,120.759872 258.276947,120.657646 
	C273.865112,120.093536 272.876923,126.038086 268.355743,136.571869 
	C263.448029,148.006195 257.739532,159.096024 252.413284,170.351715 
	C247.805450,180.089203 243.243835,189.848572 238.661789,199.598267 
	C235.745224,199.803589 232.828644,200.008926 229.439545,199.729553 
	C219.215683,178.483337 209.426422,157.739456 199.759720,136.938644 
	C198.513702,134.257462 197.561752,131.338058 197.076004,128.428436 
	C196.307068,123.822716 198.241013,121.501007 202.919296,121.076637 
	C206.729202,120.731041 210.574493,120.790443 214.393799,120.523163 
	C215.451218,120.449158 216.471893,119.850037 218.241699,119.239037 
	C212.704468,116.384323 151.819794,116.946480 149.234207,119.703499 
	C150.469620,120.070328 151.499680,120.656281 152.515686,120.632851 
	C159.613159,120.469131 163.975281,124.333389 166.993134,130.240677 
	C169.564026,135.273087 172.193863,140.278732 174.625610,145.378235 
	C183.347946,163.669373 191.997284,181.995300 200.674225,200.308090 
z"/>
<path fill="#A3A3A3" opacity="1.000000" stroke="none" 
	d="
M201.098190,200.295395 
	C191.997284,181.995300 183.347946,163.669373 174.625610,145.378235 
	C172.193863,140.278732 169.564026,135.273087 166.993134,130.240677 
	C163.975281,124.333389 159.613159,120.469131 152.515686,120.632851 
	C151.499680,120.656281 150.469620,120.070328 149.234207,119.703499 
	C151.819794,116.946480 212.704468,116.384323 218.241699,119.239037 
	C216.471893,119.850037 215.451218,120.449158 214.393799,120.523163 
	C210.574493,120.790443 206.729202,120.731041 202.919296,121.076637 
	C198.241013,121.501007 196.307068,123.822716 197.076004,128.428436 
	C197.561752,131.338058 198.513702,134.257462 199.759720,136.938644 
	C209.426422,157.739456 219.215683,178.483337 229.008026,199.603989 
	C219.873398,200.069656 210.697784,200.176178 201.098190,200.295395 
z"/>
<path fill="#A4A4A4" opacity="1.000000" stroke="none" 
	d="
M253.734879,250.118958 
	C254.634537,251.584366 254.882172,253.065735 255.503815,254.368637 
	C265.156921,274.600128 274.867188,294.804352 284.544403,315.024384 
	C288.061035,322.372253 291.543579,329.713715 301.578735,329.291809 
	C301.934326,329.276855 302.384277,329.774902 302.655762,330.135193 
	C302.820648,330.354004 302.726929,330.767670 302.786224,331.628784 
	C280.367523,331.628784 257.989441,331.628784 235.611328,331.628784 
	C235.491821,331.255188 235.372330,330.881592 235.252823,330.507996 
	C236.473129,330.059265 237.670959,329.312866 238.918015,329.218750 
	C242.398071,328.956116 245.921219,329.180084 249.385849,328.816498 
	C255.305237,328.195282 257.589539,324.961914 256.173126,319.237091 
	C255.379471,316.029266 254.428543,312.791168 253.022263,309.815338 
	C243.730438,290.153076 234.295715,270.558350 224.809174,250.601562 
	C234.226151,250.191635 243.741486,250.121765 253.734879,250.118958 
z"/>
<path fill="#929292" opacity="1.000000" stroke="none" 
	d="
M239.030151,199.777679 
	C243.243835,189.848572 247.805450,180.089203 252.413284,170.351715 
	C257.739532,159.096024 263.448029,148.006195 268.355743,136.571869 
	C272.876923,126.038086 273.865112,120.093536 258.276947,120.657646 
	C255.451996,120.759872 252.611740,120.787048 249.795898,120.594879 
	C248.875900,120.532089 248.010880,119.663467 247.120728,119.163376 
	C247.906006,118.558899 248.687958,117.432144 249.477081,117.427094 
	C265.117767,117.326881 280.759369,117.339195 296.400391,117.411057 
	C297.181915,117.414642 297.960022,118.163361 298.756897,119.839592 
	C297.029022,120.120117 295.269379,120.766991 293.578461,120.620461 
	C284.097382,119.798843 278.459229,124.384605 274.510773,132.675140 
	C263.872772,155.011642 252.861679,177.170471 241.910736,199.762711 
	C241.014725,200.069427 240.206604,200.013260 239.030151,199.777679 
z"/>
<path fill="#9D9D9D" opacity="1.000000" stroke="none" 
	d="
M206.913696,250.329712 
	C198.050720,269.524475 188.682877,288.615479 179.476028,307.783783 
	C177.616699,311.654846 176.073868,315.735901 174.906372,319.867401 
	C173.262939,325.683197 175.175186,328.401245 181.266068,328.871948 
	C186.399475,329.268646 191.581039,329.006256 196.736862,329.172760 
	C198.087082,329.216339 199.420822,329.770294 200.762131,330.089874 
	C200.690460,330.586823 200.618790,331.083771 200.547119,331.580719 
	C182.329727,331.580719 164.112335,331.580719 145.894943,331.580719 
	C145.270981,330.961823 144.647034,330.342926 144.023087,329.724030 
	C145.134872,329.534729 146.240417,329.275177 147.360184,329.175568 
	C148.517776,329.072571 149.694092,329.047729 150.853806,329.121338 
	C161.097275,329.771637 167.606705,325.065979 171.975235,315.843750 
	C181.790161,295.123901 192.116257,274.646332 202.204239,254.055420 
	C202.699875,253.043747 202.910049,251.892212 203.060089,250.464935 
	C204.066544,250.167099 205.266052,250.210129 206.913696,250.329712 
z"/>
<path fill="#353535" opacity="1.000000" stroke="none" 
	d="
M175.038300,224.461014 
	C175.811401,222.345154 176.584518,220.229294 177.357620,218.113434 
	C177.776352,218.225449 178.195068,218.337448 178.613800,218.449463 
	C178.613800,223.921082 178.613800,229.392700 178.613800,234.864319 
	C178.166519,234.972580 177.719223,235.080841 177.271942,235.189102 
	C174.950226,232.158218 177.548676,227.906570 175.507263,224.606720 
	C174.985809,224.536667 175.038300,224.461014 175.038300,224.461014 
z"/>
<path fill="#373737" opacity="1.000000" stroke="none" 
	d="
M253.163116,227.981079 
	C253.542664,224.439789 252.382416,221.103333 254.389404,217.130676 
	C256.503021,223.883682 255.901505,233.733002 253.163101,235.333450 
	C253.163101,232.824280 253.163101,230.642593 253.163116,227.981079 
z"/>
<path fill="#1E1E1E" opacity="1.000000" stroke="none" 
	d="
M230.196899,222.000992 
	C230.251312,222.602539 230.305710,223.204071 230.656403,224.236084 
	C230.628723,225.425873 230.304779,226.185181 229.980835,226.944489 
	C229.130707,229.386108 228.280609,231.827744 227.328293,234.562943 
	C227.397705,234.633362 226.246216,234.012711 226.222580,233.351700 
	C226.076141,229.258621 226.076797,225.149673 226.338409,221.065826 
	C226.371780,220.544876 228.205948,220.139282 229.624084,220.181580 
	C230.093842,221.122253 230.145370,221.561630 230.196899,222.000992 
z"/>
<path fill="#252525" opacity="1.000000" stroke="none" 
	d="
M114.770752,229.376938 
	C113.327286,225.986664 111.883820,222.596375 110.440353,219.206100 
	C110.749214,218.958847 111.058075,218.711609 111.366943,218.464355 
	C112.464958,220.009003 113.562981,221.553635 114.959290,223.372910 
	C115.257576,223.647537 115.205780,223.762955 115.205780,223.762955 
	C116.788986,227.346573 118.372192,230.930191 120.080727,234.797516 
	C115.517715,235.885727 117.369453,230.940887 115.032761,229.641098 
	C114.704552,229.424484 114.770752,229.376938 114.770752,229.376938 
z"/>
<path fill="#272727" opacity="1.000000" stroke="none" 
	d="
M170.189514,224.710983 
	C171.182007,228.251511 172.085251,231.397034 172.988480,234.542542 
	C172.481964,234.676590 171.975464,234.810638 171.468964,234.944687 
	C169.601776,229.801346 167.734604,224.658005 165.646500,218.906097 
	C170.130280,218.889786 168.984207,222.515305 170.189514,224.710983 
z"/>
<path fill="#FBFBFB" opacity="1.000000" stroke="none" 
	d="
M229.991150,227.327637 
	C230.304779,226.185181 230.628723,225.425873 230.952362,224.341461 
	C232.071304,224.074310 233.190552,224.132248 233.473770,224.146896 
	C234.159500,227.960281 234.765869,231.332352 235.407028,234.897812 
	C231.091904,234.973007 231.059982,230.881958 229.991150,227.327637 
z"/>
<path fill="#272727" opacity="1.000000" stroke="none" 
	d="
M143.234695,226.627411 
	C142.687912,224.119354 142.141144,221.611282 141.594360,219.103226 
	C142.099350,218.946762 142.604324,218.790298 143.109314,218.633835 
	C144.725327,223.944244 146.341354,229.254669 148.016968,234.760895 
	C143.173340,235.606674 145.831146,231.033630 144.005646,229.060196 
	C143.637756,227.798431 143.436234,227.212921 143.234695,226.627411 
z"/>
<path fill="#2C2C2C" opacity="1.000000" stroke="none" 
	d="
M199.418106,220.411209 
	C199.418106,225.144760 199.418106,229.878311 199.418106,234.263763 
	C195.833069,230.329956 195.382721,226.152771 198.657501,220.138977 
	C199.134933,220.133972 199.418106,220.411209 199.418106,220.411209 
z"/>
<path fill="#FBFBFB" opacity="1.000000" stroke="none" 
	d="
M300.009766,221.622498 
	C300.205688,220.653946 300.393677,220.101349 300.581635,219.548752 
	C300.848633,219.591553 301.115631,219.634354 301.382629,219.677155 
	C301.382629,224.631683 301.382629,229.586212 301.382629,234.540741 
	C300.922363,234.534592 300.462067,234.528427 300.001801,234.522278 
	C300.001801,230.360992 300.001801,226.199722 300.009766,221.622498 
z"/>
<path fill="#131313" opacity="1.000000" stroke="none" 
	d="
M277.058777,231.893311 
	C277.175140,227.300095 277.282837,223.201584 277.438049,219.104858 
	C277.443054,218.972198 277.933319,218.857925 278.852905,218.430069 
	C278.852905,223.946838 278.852905,229.195175 278.852905,234.443497 
	C278.661621,234.645828 278.470337,234.848175 278.279022,235.050507 
	C277.871857,234.163101 277.464661,233.275696 277.058777,231.893311 
z"/>
<path fill="#F7F7F7" opacity="1.000000" stroke="none" 
	d="
M206.599670,229.271164 
	C206.972824,227.510681 207.147736,226.077896 207.358307,224.353195 
	C210.911255,229.328964 208.012421,234.734619 201.470856,235.591629 
	C203.199081,233.491104 204.800262,231.544983 206.599670,229.271164 
z"/>
<path fill="#FBFBFB" opacity="1.000000" stroke="none" 
	d="
M230.574799,222.000793 
	C230.145370,221.561630 230.093842,221.122253 229.983734,220.355057 
	C231.462234,219.934357 232.999313,219.841507 234.536407,219.748642 
	C234.597046,220.321594 234.657669,220.894547 234.718307,221.467484 
	C233.463104,221.645187 232.207901,221.822891 230.574799,222.000793 
z"/>
<path fill="#F7F7F7" opacity="1.000000" stroke="none" 
	d="
M205.355011,222.067383 
	C205.541199,221.166382 205.796219,220.565521 206.415054,219.107407 
	C206.957397,220.608948 207.275253,221.488968 207.593109,222.368988 
	C206.870026,222.368500 206.146942,222.367996 205.355011,222.067383 
z"/>
<path fill="#FBFBFB" opacity="1.000000" stroke="none" 
	d="
M274.001587,219.267319 
	C273.870728,220.340775 273.739899,221.414246 273.609039,222.487701 
	C273.206787,222.498688 272.804504,222.509659 272.402252,222.520645 
	C272.402252,221.509750 272.402252,220.498871 272.924286,219.314178 
	C273.631378,219.182678 273.816467,219.224991 274.001587,219.267319 
z"/>
<path fill="#B6B6B6" opacity="1.000000" stroke="none" 
	d="
M283.591949,218.537231 
	C283.870911,219.552139 283.932190,220.320953 284.070496,222.055634 
	C282.798340,220.348602 282.097290,219.407898 281.047119,217.998703 
	C282.198700,218.143402 282.786469,218.217270 283.591949,218.537231 
z"/>
<path fill="#F7F7F7" opacity="1.000000" stroke="none" 
	d="
M334.004486,222.995728 
	C334.617096,223.541870 335.229706,224.088013 335.842316,224.634171 
	C335.557617,224.932495 335.272888,225.230820 334.988159,225.529144 
	C334.659576,224.916931 334.330963,224.304703 334.001160,223.346252 
	C334.000000,223.000000 334.004486,222.995728 334.004486,222.995728 
z"/>
<path fill="#FBFBFB" opacity="1.000000" stroke="none" 
	d="
M138.545883,233.394470 
	C138.588516,234.004807 138.368362,234.488708 138.148193,234.972610 
	C137.684662,234.701050 137.221146,234.429474 136.757614,234.157913 
	C137.266098,233.861282 137.774597,233.564651 138.545883,233.394470 
z"/>
<path fill="#FBFBFB" opacity="1.000000" stroke="none" 
	d="
M326.424744,225.880127 
	C326.677643,226.640182 326.677643,227.466949 326.677643,228.293701 
	C326.390594,228.267548 326.103546,228.241379 325.816498,228.215210 
	C325.934937,227.459091 326.053375,226.702957 326.424744,225.880127 
z"/>
<path fill="#E0E0E0" opacity="1.000000" stroke="none" 
	d="
M143.049301,226.904663 
	C143.436234,227.212921 143.637756,227.798431 143.825180,228.708405 
	C142.862732,229.032867 141.914383,229.032867 139.953598,229.032867 
	C141.494019,228.053177 142.178955,227.617554 143.049301,226.904663 
z"/>
<path fill="#FBFBFB" opacity="1.000000" stroke="none" 
	d="
M167.898560,234.335815 
	C167.045181,234.667023 165.997894,234.785538 164.950607,234.904053 
	C164.936752,234.643753 164.922897,234.383438 164.909042,234.123138 
	C165.840912,234.123138 166.772797,234.123138 167.898560,234.335815 
z"/>
<path fill="#F7F7F7" opacity="1.000000" stroke="none" 
	d="
M338.528992,227.394333 
	C338.646271,226.940231 338.931915,226.661743 339.235748,226.404785 
	C339.243591,226.398178 339.450653,226.627106 339.564789,226.746185 
	C339.276459,227.021729 338.988098,227.297272 338.528992,227.394333 
z"/>
<path fill="#F7F7F7" opacity="1.000000" stroke="none" 
	d="
M333.997559,223.002136 
	C333.543121,222.849579 333.091095,222.694885 332.639099,222.540192 
	C332.773010,222.259857 332.906921,221.979553 333.040833,221.699249 
	C333.349670,221.961227 333.658539,222.223206 333.985931,222.740448 
	C334.004486,222.995728 334.000000,223.000000 333.997559,223.002136 
z"/>
<path fill="#E0E0E0" opacity="1.000000" stroke="none" 
	d="
M140.356079,225.791382 
	C140.047043,226.145172 139.799561,226.285568 139.552063,226.425964 
	C139.479248,226.166382 139.406433,225.906784 139.333603,225.647202 
	C139.694946,225.624130 140.056274,225.601059 140.356079,225.791382 
z"/>
<path fill="#FBFBFB" opacity="1.000000" stroke="none" 
	d="
M175.018829,224.510284 
	C174.978958,225.330521 174.906067,226.177139 174.833160,227.023758 
	C174.600204,226.980698 174.367249,226.937637 174.134277,226.894577 
	C174.303436,226.263367 174.472610,225.632156 174.840027,224.730988 
	C175.038300,224.461014 174.985809,224.536667 175.018829,224.510284 
z"/>
<path fill="#FBFBFB" opacity="1.000000" stroke="none" 
	d="
M326.741608,222.353333 
	C326.569550,222.042633 326.610504,221.691193 326.651459,221.339737 
	C326.895477,221.427155 327.139465,221.514572 327.383484,221.601990 
	C327.240540,221.838867 327.097595,222.075729 326.741608,222.353333 
z"/>
<path fill="#B6B6B6" opacity="1.000000" stroke="none" 
	d="
M274.276154,219.171356 
	C273.816467,219.224991 273.631378,219.182678 273.166992,219.082184 
	C273.641937,218.760147 274.396179,218.496307 275.150421,218.232452 
	C274.950531,218.513443 274.750610,218.794418 274.276154,219.171356 
z"/>
<path fill="#F7F7F7" opacity="1.000000" stroke="none" 
	d="
M334.915253,230.083603 
	C334.807770,229.607193 334.700256,229.130768 334.592773,228.654358 
	C334.733185,228.925507 334.873596,229.196640 335.001099,229.741959 
	C334.988220,230.016129 334.915253,230.083603 334.915253,230.083603 
z"/>
<path fill="#F7F7F7" opacity="1.000000" stroke="none" 
	d="
M335.027405,229.985565 
	C335.183594,230.416794 335.300629,230.878586 335.417633,231.340378 
	C335.275757,231.078308 335.133911,230.816223 334.953644,230.318878 
	C334.915253,230.083603 334.988220,230.016129 335.027405,229.985565 
z"/>
<path fill="#2C2C2C" opacity="1.000000" stroke="none" 
	d="
M198.995392,219.993271 
	C199.134796,219.641846 199.413712,219.431107 199.692657,219.220398 
	C199.735748,219.486038 199.778839,219.751678 199.620026,220.214264 
	C199.418106,220.411209 199.134933,220.133972 198.995392,219.993271 
z"/>
<path fill="#FBFBFB" opacity="1.000000" stroke="none" 
	d="
M120.467331,218.449631 
	C120.522987,218.416382 120.411682,218.482880 120.467331,218.449631 
z"/>
<path fill="#FBFBFB" opacity="1.000000" stroke="none" 
	d="
M114.524414,229.294250 
	C114.770752,229.376938 114.704552,229.424484 114.745796,229.437317 
	C114.510094,229.438263 114.233147,229.426361 113.956200,229.414474 
	C114.063492,229.346848 114.170784,229.279205 114.524414,229.294250 
z"/>
<path fill="#FBFBFB" opacity="1.000000" stroke="none" 
	d="
M115.472878,223.797607 
	C115.205780,223.762955 115.257576,223.647537 115.210159,223.606873 
	C115.457588,223.571182 115.752426,223.576141 116.047272,223.581116 
	C115.944839,223.664825 115.842407,223.748550 115.472878,223.797607 
z"/>
</svg>